<?xml version="1.0" encoding="UTF-8" standalone="no"?>
<!DOCTYPE svg PUBLIC "-//W3C//DTD SVG 1.1//EN"
 "http://www.w3.org/Graphics/SVG/1.1/DTD/svg11.dtd">
<!-- Generated by graphviz version 2.38.0 (20140413.2041)
 -->
<!-- Title: list Pages: 1 -->
<svg width="533pt" height="263pt"
 viewBox="14.40 14.40 518.40 248.13" xmlns="http://www.w3.org/2000/svg" xmlns:xlink="http://www.w3.org/1999/xlink">
<g id="graph0" class="graph" transform="scale(0.579977 0.579977) rotate(0) translate(28.8286 423.829)">
<title>list</title>
<polygon fill="white" stroke="none" points="-4,4 -4,-399 865,-399 865,4 -4,4"/>
<g id="clust1" class="cluster"><title>cluster0</title>
<polygon fill="none" stroke="#cd2626" points="8,-8 8,-387 767,-387 767,-8 8,-8"/>
<text text-anchor="middle" x="387.5" y="-371.8" font-family="Helvetica,sans-Serif" font-size="14.00" fill="#cd2626">Adding Users</text>
</g>
<!-- browser -->
<g id="node1" class="node"><title>browser</title>
<polygon fill="none" stroke="black" points="29,-315 29,-346 329,-346 329,-315 29,-315"/>
<text text-anchor="start" x="134" y="-326.8" font-family="Helvetica,sans-Serif" font-size="14.00">Client/browser</text>
<polygon fill="none" stroke="black" points="29,-284 29,-315 329,-315 329,-284 29,-284"/>
<text text-anchor="start" x="131.5" y="-295.8" font-family="Helvetica,sans-Serif" font-size="14.00">localhost:5000/</text>
<polygon fill="none" stroke="black" points="29,-253 29,-284 329,-284 329,-253 29,-253"/>
<text text-anchor="start" x="130.5" y="-264.8" font-family="Helvetica,sans-Serif" font-size="14.00">homepage.html</text>
<polygon fill="none" stroke="black" stroke-width="3" points="27.5,-252 27.5,-348 330.5,-348 330.5,-252 27.5,-252"/>
</g>
<!-- browser2 -->
<g id="node2" class="node"><title>browser2</title>
<polygon fill="none" stroke="black" points="29,-173 29,-204 329,-204 329,-173 29,-173"/>
<text text-anchor="start" x="134" y="-184.8" font-family="Helvetica,sans-Serif" font-size="14.00">Client/browser</text>
<polygon fill="none" stroke="black" points="29,-142 29,-173 329,-173 329,-142 29,-142"/>
<text text-anchor="start" x="108.5" y="-153.8" font-family="Helvetica,sans-Serif" font-size="14.00">localhost:5000/register</text>
<text text-anchor="start" x="122.5" y="-123.8" font-family="Helvetica,sans-Serif" font-size="14.00">register_form.html</text>
<text text-anchor="start" x="56.5" y="-94.8" font-family="Helvetica,sans-Serif" font-size="14.00">form action=&quot;/register&quot; method=&quot;POST&quot;</text>
<polygon fill="none" stroke="black" stroke-width="3" points="27.5,-82.5 27.5,-205.5 330.5,-205.5 330.5,-82.5 27.5,-82.5"/>
</g>
<!-- browser&#45;&gt;browser2 -->
<g id="edge1" class="edge"><title>browser&#45;&gt;browser2</title>
</g>
<!-- browser&#45;&gt;browser2 -->
<!-- server -->
<g id="node3" class="node"><title>server</title>
<polygon fill="none" stroke="black" points="426,-316 426,-347 746,-347 746,-316 426,-316"/>
<text text-anchor="start" x="546.5" y="-327.8" font-family="Helvetica,sans-Serif" font-size="14.00">Server/Flask</text>
<text text-anchor="start" x="433" y="-297.8" font-family="Helvetica,sans-Serif" font-size="14.00" fill="red">@app.route(&quot;/&quot;)</text>
<text text-anchor="start" x="433" y="-269.8" font-family="Helvetica,sans-Serif" font-size="14.00"> &#160;&#160;&#160;&#160;&#160;&#160;&#160;return render_template(&quot;homepage.html&quot;)</text>
<text text-anchor="start" x="723" y="-269.8" font-family="Helvetica,sans-Serif" font-size="14.00"> </text>
<text text-anchor="start" x="578" y="-255.8" font-family="Helvetica,sans-Serif" font-size="14.00"> </text>
<text text-anchor="start" x="433" y="-226.8" font-family="Helvetica,sans-Serif" font-size="14.00" fill="red">@app.route(&quot;/register&quot;, methods=[&quot;GET&quot;]) </text>
<text text-anchor="start" x="451" y="-197.8" font-family="Helvetica,sans-Serif" font-size="14.00"> &#160;&#160;&#160;&#160;&#160;def register_form(): </text>
<text text-anchor="start" x="433" y="-182.8" font-family="Helvetica,sans-Serif" font-size="14.00"> &#160;&#160;&#160;&#160;&#160;&#160;&#160;###Your awesome code</text>
<text text-anchor="start" x="433" y="-153.8" font-family="Helvetica,sans-Serif" font-size="14.00"> &#160;&#160;&#160;&#160;&#160;&#160;&#160;return render_template(&quot;register_form.html&quot;)</text>
<text text-anchor="start" x="433" y="-108.8" font-family="Helvetica,sans-Serif" font-size="14.00" fill="red">@app.route(&quot;/register&quot;, methods=[&quot;POST&quot;]) </text>
<text text-anchor="start" x="436.5" y="-79.8" font-family="Helvetica,sans-Serif" font-size="14.00"> &#160;&#160;&#160;&#160;&#160;&#160;&#160;def register_process(): </text>
<text text-anchor="start" x="433" y="-64.8" font-family="Helvetica,sans-Serif" font-size="14.00"> &#160;&#160;&#160;&#160;&#160;&#160;&#160;###Your awesome code</text>
<text text-anchor="start" x="433" y="-35.8" font-family="Helvetica,sans-Serif" font-size="14.00"> &#160;&#160;&#160;&#160;&#160;&#160;&#160;return redirect(&quot;/&quot;)</text>
<polygon fill="none" stroke="black" stroke-width="3" points="424.5,-23.5 424.5,-348.5 747.5,-348.5 747.5,-23.5 424.5,-23.5"/>
</g>
<!-- browser&#45;&gt;server -->
<g id="edge3" class="edge"><title>browser:f1&#45;&gt;server:f1</title>
<path fill="none" stroke="black" d="M330,-299C368.613,-299 380.715,-301.507 414.772,-301.937"/>
<polygon fill="black" stroke="black" points="414.979,-305.439 425,-302 415.022,-298.439 414.979,-305.439"/>
<text text-anchor="middle" x="377.5" y="-304.8" font-family="Helvetica,sans-Serif" font-size="14.00">GET</text>
</g>
<!-- browser2&#45;&gt;server -->
<g id="edge4" class="edge"><title>browser2:f1&#45;&gt;server:f2</title>
<path fill="none" stroke="black" d="M330,-158C379.608,-158 373.021,-221.361 414.946,-230.023"/>
<polygon fill="black" stroke="black" points="414.708,-233.517 425,-231 415.385,-226.549 414.708,-233.517"/>
<text text-anchor="middle" x="377.5" y="-223.8" font-family="Helvetica,sans-Serif" font-size="14.00">GET</text>
</g>
<!-- browser2&#45;&gt;server -->
<g id="edge6" class="edge"><title>browser2:f1c&#45;&gt;server:f3</title>
<path fill="none" stroke="black" d="M330,-98C369.011,-98 380.42,-109.697 414.687,-111.708"/>
<polygon fill="black" stroke="black" points="414.905,-115.215 425,-112 415.103,-108.218 414.905,-115.215"/>
<text text-anchor="middle" x="377.5" y="-113.8" font-family="Helvetica,sans-Serif" font-size="14.00">POST</text>
</g>
<!-- server&#45;&gt;browser -->
<g id="edge7" class="edge"><title>server:f1b&#45;&gt;browser:f1b</title>
<path fill="none" stroke="black" d="M425,-266C386.398,-266 374.277,-267.671 340.226,-267.958"/>
<polygon fill="black" stroke="black" points="339.986,-264.459 330,-268 340.014,-271.459 339.986,-264.459"/>
</g>
<!-- server&#45;&gt;browser2 -->
<g id="edge5" class="edge"><title>server:f2c&#45;&gt;browser2:f1b</title>
<path fill="none" stroke="black" d="M425,-149C385.216,-149 374.94,-130.461 339.997,-127.42"/>
<polygon fill="black" stroke="black" points="340.138,-123.923 330,-127 339.844,-130.917 340.138,-123.923"/>
</g>
<!-- server&#45;&gt;server -->
<g id="edge8" class="edge"><title>server:f3c:e&#45;&gt;server:f1:e</title>
<path fill="none" stroke="black" d="M746,-39C791.667,-30 861,-30 861,-170.5 861,-301.121 801.074,-310.305 755.951,-303.719"/>
<polygon fill="black" stroke="black" points="756.45,-300.254 746,-302 755.258,-307.151 756.45,-300.254"/>
</g>
</g>
</svg>
