<?xml version="1.0" encoding="UTF-8" standalone="no"?>
<!DOCTYPE svg PUBLIC "-//W3C//DTD SVG 1.1//EN"
 "http://www.w3.org/Graphics/SVG/1.1/DTD/svg11.dtd">
<!-- Generated by graphviz version 2.38.0 (20140413.2041)
 -->
<!-- Title: list Pages: 1 -->
<svg width="461pt" height="129pt"
 viewBox="14.40 14.40 446.40 114.27" xmlns="http://www.w3.org/2000/svg" xmlns:xlink="http://www.w3.org/1999/xlink">
<g id="graph0" class="graph" transform="scale(0.570674 0.570674) rotate(0) translate(29.2333 196.233)">
<title>list</title>
<polygon fill="white" stroke="none" points="-4,4 -4,-171 753,-171 753,4 -4,4"/>
<g id="clust1" class="cluster"><title>cluster0</title>
<polygon fill="none" stroke="#cd2626" points="8,-8 8,-159 741,-159 741,-8 8,-8"/>
<text text-anchor="middle" x="374.5" y="-143.8" font-family="Helvetica,sans-Serif" font-size="14.00" fill="#cd2626">Homepage</text>
</g>
<!-- browser -->
<g id="node1" class="node"><title>browser</title>
<polygon fill="none" stroke="black" points="29,-87 29,-118 329,-118 329,-87 29,-87"/>
<text text-anchor="start" x="134" y="-98.8" font-family="Helvetica,sans-Serif" font-size="14.00">Client/browser</text>
<polygon fill="none" stroke="black" points="29,-56 29,-87 329,-87 329,-56 29,-56"/>
<text text-anchor="start" x="131.5" y="-67.8" font-family="Helvetica,sans-Serif" font-size="14.00">localhost:5000/</text>
<polygon fill="none" stroke="black" points="29,-25 29,-56 329,-56 329,-25 29,-25"/>
<text text-anchor="start" x="130.5" y="-36.8" font-family="Helvetica,sans-Serif" font-size="14.00">homepage.html</text>
<polygon fill="none" stroke="black" stroke-width="3" points="27.5,-24 27.5,-120 330.5,-120 330.5,-24 27.5,-24"/>
</g>
<!-- server -->
<g id="node2" class="node"><title>server</title>
<polygon fill="none" stroke="black" points="416,-85 416,-116 720,-116 720,-85 416,-85"/>
<text text-anchor="start" x="528.5" y="-96.8" font-family="Helvetica,sans-Serif" font-size="14.00">Server/Flask</text>
<text text-anchor="start" x="423" y="-66.8" font-family="Helvetica,sans-Serif" font-size="14.00" fill="red">@app.route(&quot;/&quot;) </text>
<text text-anchor="start" x="423" y="-37.8" font-family="Helvetica,sans-Serif" font-size="14.00"> &#160;&#160;&#160;&#160;&#160;&#160;&#160;return render_template(&quot;homepage.html&quot;)</text>
<polygon fill="none" stroke="black" stroke-width="3" points="414.5,-26 414.5,-118 721.5,-118 721.5,-26 414.5,-26"/>
</g>
<!-- browser&#45;&gt;server -->
<g id="edge1" class="edge"><title>browser:f1&#45;&gt;server:f1</title>
<path fill="none" stroke="black" d="M330,-71C364.091,-71 375.106,-70.1858 404.69,-70.0267"/>
<polygon fill="black" stroke="black" points="405.009,-73.526 415,-70 404.991,-66.5261 405.009,-73.526"/>
<text text-anchor="middle" x="372.5" y="-73.8" font-family="Helvetica,sans-Serif" font-size="14.00">GET</text>
</g>
<!-- server&#45;&gt;browser -->
<g id="edge2" class="edge"><title>server:f1b&#45;&gt;browser:f1b</title>
<path fill="none" stroke="black" d="M415,-41C380.909,-41 369.894,-40.1858 340.31,-40.0267"/>
<polygon fill="black" stroke="black" points="340.009,-36.5261 330,-40 339.991,-43.526 340.009,-36.5261"/>
</g>
</g>
</svg>
